<?xml version="1.0" encoding="us-ascii"?>
<!DOCTYPE svg PUBLIC "-//W3C//DTD SVG 1.1//EN" "http://www.w3.org/Graphics/SVG/1.1/DTD/svg11.dtd">
<svg version="1.1" xmlns="http://www.w3.org/2000/svg" xmlns:xlink="http://www.w3.org/1999/xlink" width="500" height="300" viewBox="0 100 512 312">
<path fill="hsl(30,100%,39%)" d="M499.241 256c-14.725 26.501-32.379 48.875-53.586 67.144-50.658 45.363-114.258 67.738-189.655 67.738-74.803 0-138.414-22.385-189.645-67.738-20.613-18.268-38.871-40.642-53.596-67.144 14.725-25.917 32.983-48.302 53.596-67.144 51.231-45.363 114.841-67.737 189.645-67.737 75.387 0 138.987 22.384 189.655 67.737 21.207 18.841 38.851 41.226 53.586 67.144v0zM464.486 256c-12.38-21.197-27.668-40.059-45.937-55.358-43.582-37.12-97.762-55.378-162.55-55.378-64.205 0-118.395 18.258-162.55 55.378-17.674 15.298-32.983 34.161-45.937 55.358 12.964 21.822 28.273 40.059 45.937 55.358 44.165 37.12 98.345 55.358 162.55 55.358 64.788 0 118.969-18.238 162.55-55.358 18.268-15.298 33.557-33.536 45.937-55.358z" />
<path fill="hsl(30,100%,39%)" d="M256 153.538c56.535 0 103.055 45.895 103.055 102.462 0 56.535-46.521 103.055-103.055 103.055s-103.065-46.521-103.065-103.055c0-56.555 46.531-102.462 103.065-102.462v0zM256 195.338c-33.566 0-60.662 27.095-60.662 60.662 0 33.577 27.095 60.662 60.662 60.662 33.557 0 60.672-27.085 60.672-60.662 0-33.556-27.115-60.662-60.672-60.662v0zM256 211.825c-24.136 0-44.165 20.019-44.165 44.175 0 24.135 20.030 44.175 44.165 44.175s44.165-20.039 44.165-44.175c0-24.156-20.029-44.175-44.165-44.175z" />
</svg>
