<?xml version="1.0" encoding="UTF-8" standalone="no"?>
<svg
   xmlns:dc="http://purl.org/dc/elements/1.1/"
   xmlns:cc="http://creativecommons.org/ns#"
   xmlns:rdf="http://www.w3.org/1999/02/22-rdf-syntax-ns#"
   xmlns:svg="http://www.w3.org/2000/svg"
   xmlns="http://www.w3.org/2000/svg"
   xmlns:xlink="http://www.w3.org/1999/xlink"
   width="40.556751mm"
   height="27.841394mm"
   viewBox="0 0 153.28536 105.22732"
   version="1.1"
   id="svg8">
  <title
     id="title4539">egg</title>
  <defs
     id="defs2">
    <linearGradient
       id="linearGradient4527">
      <stop
         id="stop4525"
         offset="0"
         style="stop-color:#ffffff;stop-opacity:1" />
      <stop
         id="stop4523"
         offset="1"
         style="stop-color:#ffcc99;stop-opacity:1;" />
    </linearGradient>
    <linearGradient
       xlink:href="#linearGradient4527"
       id="linearGradient4529"
       x1="98.462288"
       y1="186.33176"
       x2="98.462288"
       y2="283.88513"
       gradientUnits="userSpaceOnUse" />
  </defs>
  <metadata
     id="metadata5">
    <rdf:RDF>
      <cc:Work
         rdf:about="">
        <dc:format>image/svg+xml</dc:format>
        <dc:type
           rdf:resource="http://purl.org/dc/dcmitype/StillImage" />
        <dc:title>egg</dc:title>
      </cc:Work>
    </rdf:RDF>
  </metadata>
  <g
     transform="translate(-24.861031,-182.89571)"
     id="layer1">
    <path
       style="fill:url(#linearGradient4529);fill-opacity:1;stroke:#000000;stroke-width:1;stroke-miterlimit:4;stroke-dasharray:none;stroke-opacity:1"
       id="path3710"
       d="m 105.45312,187.19141 c -1.25583,1.42313 -0.0772,-0.25635 -1.26367,2.04297 -0.22006,0.58818 -0.38529,1.03874 -0.57812,1.41796 -0.19284,0.37923 -0.45735,0.81967 -1.03906,0.94727 -0.58172,0.1276 -1.00074,-0.15592 -1.33985,-0.41602 -0.33911,-0.26009 -0.68635,-0.59811 -1.14453,-1.03711 -1.250275,-1.19792 -2.11044,-1.9096 -2.787109,-2.29296 -0.676668,-0.38337 -1.157218,-0.48173 -1.917969,-0.47266 -1.667868,0.0199 -3.546477,0.97154 -5.52539,2.97266 -1.978914,2.00111 -4.01928,5.02016 -5.986328,8.95507 -4.293247,8.58829 -7.617372,19.62968 -8.435547,27.96485 -0.326627,3.32749 -0.135893,9.61975 0.367187,12.51367 0.745405,4.28788 3.121026,10.23862 4.953125,12.64062 0.969313,1.27084 2.745597,2.46324 4.691407,3.21289 1.945809,0.74967 4.058366,1.05307 5.615234,0.75782 2.771482,-0.52561 5.997056,-2.80897 8.126953,-5.90625 l 1.023437,-1.49024 a 0.84217082,0.84217082 0 0 1 1.53516,0.44336 l 0.084,2.08594 c 0.14724,3.70209 -0.65789,6.74096 -2.367186,8.83594 -1.709296,2.09497 -4.327402,3.149 -7.419922,2.92773 -2.846318,-0.20365 -5.301992,-1.59942 -8.478516,-4.66015 -2.370133,-2.28375 -4.046583,-3.31602 -5.40039,-3.39844 -1.353808,-0.0824 -2.734192,0.70177 -4.705078,2.69726 -3.428028,3.47082 -4.635341,7.73411 -3.480469,12.16797 0.857526,3.29227 3.500703,6.30765 7.576172,8.6875 4.075468,2.37986 9.555104,4.1012 15.904297,4.82032 4.869211,0.55148 10.276262,0.10114 14.068362,-1.13672 6.72575,-2.19551 10.83176,-6.43066 12.42773,-12.75586 0.52292,-2.07247 0.64098,-8.76428 0.15235,-11.41797 -0.63493,-3.44809 -2.00423,-11.77282 -3.11719,-18.94141 -0.21354,-1.37534 -0.50992,-3.16744 -0.65235,-3.94726 -0.92775,-5.07936 -1.34619,-10.64068 -1.47656,-19.45313 -0.13441,-9.086 -0.3789,-14.97978 -0.88867,-18.9707 -0.50977,-3.99092 -1.26352,-6.02283 -2.40234,-7.57422 -1.0402,-1.41704 -2.12394,-1.95647 -4.55665,-2.16211 -0.9193,-0.0777 -1.40501,-0.0859 -1.5625,-0.0586 z m 53.44532,0 c -1.25588,1.4233 -0.0771,-0.25684 -1.26367,2.04297 -0.22004,0.58808 -0.38559,1.03887 -0.57813,1.41796 -0.19254,0.3791 -0.45511,0.81943 -1.03711,0.94727 -0.582,0.12784 -1.00101,-0.15596 -1.33984,-0.41602 -0.33884,-0.26005 -0.6864,-0.59816 -1.14453,-1.03711 -1.2502,-1.19784 -2.11191,-1.90956 -2.78907,-2.29296 -0.67716,-0.38341 -1.15721,-0.48173 -1.91797,-0.47266 -1.66786,0.0199 -3.54647,0.97154 -5.52539,2.97266 -1.97891,2.00111 -4.01928,5.02016 -5.98632,8.95507 -4.29325,8.58828 -7.61738,19.62968 -8.43555,27.96485 -0.32663,3.32749 -0.13589,9.61975 0.36719,12.51367 0.7454,4.28788 3.12103,10.23862 4.95312,12.64062 0.96932,1.27084 2.7456,2.46324 4.69141,3.21289 1.94581,0.74967 4.05836,1.05307 5.61523,0.75782 2.77148,-0.52561 5.99705,-2.80897 8.12696,-5.90625 l 1.02343,-1.49024 a 0.84217082,0.84217082 0 0 1 1.53516,0.44336 l 0.084,2.08594 c 0.14725,3.70209 -0.65788,6.74096 -2.36718,8.83594 -1.7093,2.09497 -4.32741,3.149 -7.41993,2.92773 -2.84631,-0.20365 -5.30199,-1.59942 -8.47851,-4.66015 -2.37014,-2.28375 -4.04659,-3.31602 -5.40039,-3.39844 -1.35381,-0.0824 -2.73419,0.70177 -4.70508,2.69726 -3.42807,3.47082 -4.63534,7.7341 -3.48047,12.16797 0.85751,3.2922 3.5002,6.30763 7.57617,8.6875 4.07597,2.37987 9.55706,4.1012 15.90625,4.82032 4.86925,0.55148 10.27423,0.10117 14.06641,-1.13672 6.7258,-2.19553 10.83377,-6.43081 12.42969,-12.75586 0.52292,-2.07247 0.64098,-8.76428 0.15234,-11.41797 -0.63486,-3.44778 -2.00615,-11.77267 -3.11914,-18.94141 -0.21364,-1.3761 -0.50819,-3.16876 -0.65039,-3.94726 -0.92772,-5.07915 -1.34814,-10.64055 -1.47852,-19.45313 -0.13441,-9.086 -0.3789,-14.97978 -0.88867,-18.9707 -0.50976,-3.99092 -1.26351,-6.02283 -2.40234,-7.57422 -1.0402,-1.41704 -2.12392,-1.95647 -4.55664,-2.16211 -0.91931,-0.0777 -1.40505,-0.0859 -1.5625,-0.0586 z m -106.138674,0.9082 c -3.469887,0.0303 -5.752111,1.09949 -8.773438,4.17383 -3.801575,3.86827 -7.614483,11.0811 -10.501953,20.10156 -6.866221,21.45011 -5.496892,37.99216 3.462891,47.05859 1.111062,1.12429 2.835653,2.5232 3.560546,2.94336 2.028659,1.17584 5.045159,2.19104 7.248047,2.44727 0.530046,0.0616 1.025519,0.12116 1.400391,0.16797 0.187436,0.0234 0.345161,0.0428 0.462891,0.0586 0.06119,0.008 0.116847,0.0197 0.15039,0.0234 0.02484,-10e-4 0.0606,-0.002 0.113281,-0.006 0.121781,-0.009 0.300131,-0.0242 0.517579,-0.0449 0.434895,-0.0414 1.024255,-0.10359 1.654297,-0.17578 8.324091,-0.95378 13.756601,-5.90012 16.039062,-14.67188 0.915688,-3.51908 1.020364,-4.59292 0.976562,-9.88086 -0.03358,-4.05422 -0.09484,-4.70339 -0.646484,-6.55664 -0.506641,-1.70207 -1.19485,-3.14549 -1.935547,-4.17773 -0.740697,-1.03225 -1.531012,-1.61839 -2.136719,-1.76563 -0.550262,-0.13376 -1.501922,0.29412 -2.09375,1.31446 -0.30442,0.52483 -1.193804,2.37166 -1.871093,3.92578 -1.64572,3.77626 -3.407801,5.91862 -5.824219,6.62109 -1.374414,0.39956 -2.715448,0.35292 -3.90625,-0.21875 -1.190802,-0.57167 -2.196006,-1.61219 -3.113281,-3.05469 -1.162886,-1.82875 -1.893268,-3.98611 -1.894531,-5.82031 -3.58e-4,-0.57934 0.01839,-1.04837 0.228515,-1.51953 0.210129,-0.47116 0.551839,-0.79841 0.978516,-1.16797 0.346315,-0.29996 0.913181,-0.68672 1.660156,-1.17383 0.746975,-0.48711 1.643182,-1.04273 2.517578,-1.55859 5.796001,-3.41946 8.48288,-5.60591 10.550781,-8.4961 2.119374,-2.96212 2.901227,-5.28627 3.083985,-9.20703 0.373348,-8.00953 -3.576591,-16.23361 -8.580078,-18.66992 -1.323267,-0.64427 -1.538877,-0.68553 -3.328125,-0.66992 z m -0.4375,12.56445 c 0.416311,0.0679 0.825705,0.2055 1.208984,0.41211 0.731701,0.39442 1.33043,0.92391 1.65625,1.64844 0.32582,0.72453 0.381096,1.54399 0.326172,2.56445 -0.19055,3.54034 -3.004791,7.39986 -6.47461,9.11328 -0.438123,0.21635 -0.91136,0.40436 -1.347656,0.54688 -0.436295,0.14252 -0.783778,0.25195 -1.208984,0.25195 -0.185623,0 -0.358629,-0.002 -0.56836,-0.0469 -0.20973,-0.0446 -0.486784,-0.16241 -0.68164,-0.38086 -0.389713,-0.43691 -0.347915,-0.83654 -0.361328,-1.24805 -0.0692,-2.1224 0.340442,-4.50133 1.023437,-6.61328 0.682995,-2.11195 1.593972,-3.94815 2.810547,-5.01367 0.730042,-0.63941 1.524657,-1.06866 2.359375,-1.22266 0.41791,-0.0771 0.841501,-0.0797 1.257813,-0.0117 z m 44.255859,2.53321 c 1.597689,0 2.91197,0.98246 3.732425,2.6289 0.33586,0.674 0.5712,1.23368 0.67187,2.0625 0.10068,0.82882 0.10211,1.91587 0.0996,3.94336 -0.006,4.66581 -0.45596,9.02513 -1.267577,11.50977 -0.343053,1.05017 -0.974966,2.08744 -1.753906,2.90039 -0.478878,0.49978 -0.834817,0.84852 -1.291016,1.08984 -0.456198,0.24132 -0.951763,0.29802 -1.447265,0.29297 -1.104767,-0.0113 -2.103016,-0.30799 -2.851563,-1.00977 -0.748546,-0.70177 -1.214301,-1.69965 -1.607422,-3.02343 -0.565669,-1.90482 -0.561131,-3.69247 -0.04102,-7.66016 0.491502,-3.74939 1.209125,-6.80263 2.105468,-8.98828 0.448172,-1.09283 0.937113,-1.97129 1.515625,-2.62695 0.578513,-0.65566 1.305965,-1.11914 2.134766,-1.11914 z m 53.445315,0 c 1.59768,0 2.91196,0.98247 3.73242,2.6289 0.33585,0.674 0.57119,1.23368 0.67187,2.0625 0.10069,0.82882 0.10212,1.91587 0.0996,3.94336 -0.006,4.66581 -0.45596,9.02514 -1.26757,11.50977 -0.34271,1.04914 -0.97245,2.08686 -1.75196,2.90039 -0.47908,0.49999 -0.83636,0.84869 -1.29297,1.08984 -0.4566,0.24115 -0.95175,0.29802 -1.44726,0.29297 -1.10477,-0.0113 -2.10302,-0.30799 -2.85156,-1.00977 -0.74855,-0.70177 -1.21431,-1.69965 -1.60743,-3.02343 -0.5657,-1.90484 -0.56113,-3.69248 -0.041,-7.66016 0.4915,-3.74939 1.20912,-6.80263 2.10547,-8.98828 0.44817,-1.09283 0.93711,-1.97129 1.51562,-2.62695 0.57851,-0.65566 1.30597,-1.11914 2.13477,-1.11914 z" />
  </g>
</svg>
